<svg id="Capa_1" data-name="Capa 1" xmlns="http://www.w3.org/2000/svg" viewBox="0 0 777.6 305.5"><defs><style>.cls-1{fill:#f0a500;}.cls-2{fill:#e6ddc4;}.cls-3{fill:#f0a501;}.cls-4{fill:#344857;}.cls-5{fill:#092133;}</style></defs><title>logoheader</title><path class="cls-1" d="M84.4,43.6s-3.7-1-5.3-1.2a22,22,0,0,0-3.7-.5,21.9,21.9,0,0,0-3.7,0,19,19,0,0,0-3.5.6l-2.5.6a13.3,13.3,0,0,1-2.9.6H58.3a7.9,7.9,0,0,1-2.3-.8,14.1,14.1,0,0,0-3.1-.6l-4-.3a24.2,24.2,0,0,0-5.4.7l-4.1.8-1.6.2V46a10.4,10.4,0,0,1,1.5,2.2,6.7,6.7,0,0,1,.8,2,24,24,0,0,0,1,3.8,6.4,6.4,0,0,0,3.2,3.6,7.6,7.6,0,0,0,4.2,1,9.3,9.3,0,0,0,4.7-.8,10.7,10.7,0,0,0,3.4-2.5,9.1,9.1,0,0,0,1.3-1.9,16.3,16.3,0,0,0,1.2-2.7c.4-1.1.5-1.8.7-2.5s2.5-.6,2.6,0a28.2,28.2,0,0,0,2.1,5.3,9.9,9.9,0,0,0,2.7,3.1,7.4,7.4,0,0,0,2.7,1.5,16.8,16.8,0,0,0,5.6.4,6.9,6.9,0,0,0,5.3-4.1,5.8,5.8,0,0,0,.9-2.1,10.5,10.5,0,0,0,.5-2.3l.4-1.5,1-1.4.9-1.5A4.6,4.6,0,0,0,84.4,43.6ZM58,48.2A12.9,12.9,0,0,1,55.5,54a6,6,0,0,1-2,1.8,8.2,8.2,0,0,1-3.7,1,10.9,10.9,0,0,1-3.5-.2c-.4-.1-5.2-.3-4.9-9.5a3.1,3.1,0,0,1,.5-1.8,4.4,4.4,0,0,1,1.3-.9,10.4,10.4,0,0,1,3.4-.6l3.1-.2a42.2,42.2,0,0,1,4.2.5,5.7,5.7,0,0,1,2,.7,3,3,0,0,1,1.9,1.4A3.5,3.5,0,0,1,58,48.2Zm18,8.4a11.6,11.6,0,0,1-3.6.2,8.2,8.2,0,0,1-3.6-1,5.2,5.2,0,0,1-2-1.8,11.7,11.7,0,0,1-2.5-5.8,2.8,2.8,0,0,1,.2-2,3.1,3.1,0,0,1,1.8-1.4,7.7,7.7,0,0,1,2-.7c2.1-.4,3.7-.4,4.2-.5l3.2.2a9.7,9.7,0,0,1,3.3.6,4.4,4.4,0,0,1,1.3.9,2.6,2.6,0,0,1,.6,1.8C81.2,56.3,76.4,56.5,76,56.6Z" transform="translate(-1.2 -1.9)"/><path class="cls-2" d="M36.5,68.4V71a2.2,2.2,0,0,0,2.3,2H83.5a2.2,2.2,0,0,0,2.3-2V68.4Zm27,2.1a.5.5,0,0,1-.5.5H59.3a.5.5,0,0,1-.5-.5h0a.5.5,0,0,1,.5-.5H63a.5.5,0,0,1,.5.5Z" transform="translate(-1.2 -1.9)"/><path class="cls-2" d="M83.2,41.9l-2.6-.6V39.8a.4.4,0,0,0-.4-.4H42.1c-.2,0-.3.2-.3.4v1.5l-2.7.6V39.8a3.1,3.1,0,0,1,3-3.1H80.2a3,3,0,0,1,3,3.1Z" transform="translate(-1.2 -1.9)"/><path class="cls-2" d="M80.2,66.9H42.1a3.1,3.1,0,0,1-3-3.1V51.6a10.2,10.2,0,0,0,2.7,6v6.2c0,.2.1.4.3.4H80.2a.4.4,0,0,0,.4-.4V57.6a9.1,9.1,0,0,0,2.6-6V63.8A3,3,0,0,1,80.2,66.9Z" transform="translate(-1.2 -1.9)"/><path d="M72.8,49.4a1.9,1.9,0,0,1,.2.8,2.5,2.5,0,1,1-2.5-2.5,2.7,2.7,0,0,1,1.7.6l-1.6,1.5v.6ZM52,50.4v-.6l1.6-1.5a2.7,2.7,0,0,0-1.7-.6,2.5,2.5,0,1,0,2.5,2.5,1.9,1.9,0,0,0-.2-.8Zm13.4,7.9a4.1,4.1,0,0,1-8.2,0ZM42.4,35c-.4-.7-1-1.9-1.5-3a12.1,12.1,0,0,1-1.3-4.1,8,8,0,0,1,1.6-5.5c1.6-2.6,3.8-3.9,6.1-5.2a25.9,25.9,0,0,1,8.5-3.1c-2.5,2.9-3,3.6-2.9,3.7s1.7-1.7,4.6-2.8,1.5-.2,3.9-1a44.6,44.6,0,0,0,4.2-1.6l2.8-1.1A9.7,9.7,0,0,0,72,7.6a15.7,15.7,0,0,1-.6,2.8c-.3,1.1-.7,2.1-1,3l3.4-2.2a27.8,27.8,0,0,0,3.4-2.9,14.6,14.6,0,0,0,3.4-6.4,7,7,0,0,1,1.7,2.2,9.8,9.8,0,0,1,1.1,5.1c-.1,4.9-2.8,9.5-3.6,10.8l3,4V22.5c-.1-.8-.2-1.4-.3-1.9a11.8,11.8,0,0,1,1.1,2.9A12,12,0,0,1,84,27a10.7,10.7,0,0,1-.8,3.2,14.6,14.6,0,0,1-1.6,3.1,69.1,69.1,0,0,0-16.3-3.1c-.2.6-.2.2.1.5A19.9,19.9,0,0,1,69,33.2a13.7,13.7,0,0,1,1.9,2.1l-2.9.2a42.5,42.5,0,0,1-9.5-.8c-5.1-.9-8.2-2.3-10.1-2.5A6.2,6.2,0,0,0,42.4,35Z" transform="translate(-1.2 -1.9)"/><path class="cls-2" d="M85.8,30.6a33.5,33.5,0,0,1,9.3,23.3A34,34,0,1,1,37.5,29.6l-.3-3.3A36.3,36.3,0,0,0,24.5,53.9a36.7,36.7,0,0,0,73.3,0,36.3,36.3,0,0,0-12-27Z" transform="translate(-1.2 -1.9)"/><path class="cls-2" d="M1.2,112.3V96.2H4.3L11,106.9V96.1H14v16.2H10.7L4.2,101.8v10.5Z" transform="translate(-1.2 -1.9)"/><path class="cls-2" d="M18.1,112.2V99.7h9.4v2.2H20.6v2.8h6.3v2.1H20.6v3.4h7v2.1Z" transform="translate(-1.2 -1.9)"/><path class="cls-2" d="M30.5,112.2V99.6h5.4a7.1,7.1,0,0,1,2.9.4,2.9,2.9,0,0,1,1.5,1.2,3.8,3.8,0,0,1,.5,1.9,3.6,3.6,0,0,1-.8,2.4,3.9,3.9,0,0,1-2.5,1.1l1.4,1.1,1.4,2,1.6,2.5H38.8L37,109.5a18.6,18.6,0,0,0-1.4-1.9l-.7-.5H33.1v5.2Zm2.6-7.3h4.1a1.3,1.3,0,0,0,.7-.5,1.7,1.7,0,0,0,.3-1,1.5,1.5,0,0,0-.3-1,1.9,1.9,0,0,0-1-.5H33.1Z" transform="translate(-1.2 -1.9)"/><path class="cls-2" d="M43.9,99.6h4.7l2.4.2a3.9,3.9,0,0,1,1.9,1.2,5.6,5.6,0,0,1,1.2,2,8.7,8.7,0,0,1,.4,3,7.7,7.7,0,0,1-.4,2.7,5.4,5.4,0,0,1-1.3,2.2,4.5,4.5,0,0,1-1.8,1,6.9,6.9,0,0,1-2.2.3H44Zm2.6,2.1v8.4h1.9l1.5-.2a2.8,2.8,0,0,0,1.1-.5,2.2,2.2,0,0,0,.6-1.2,9,9,0,0,0,0-4.6,3.5,3.5,0,0,0-.7-1.2,2.3,2.3,0,0,0-1.2-.6H46.5Z" transform="translate(-1.2 -1.9)"/><path class="cls-2" d="M72.3,112.1H68.8l-1.4-3.6H60.9l-1.3,3.6H56.2L62.4,96h3.4Zm-6-6.3-2.2-6-2.2,6Z" transform="translate(-1.2 -1.9)"/><path class="cls-2" d="M74.7,112.1V99.6h2.5V110h6.3v2.1Z" transform="translate(-1.2 -1.9)"/><path class="cls-2" d="M86.2,112.1V99.5h9.4v2.1H88.7v2.8H95v2.1H88.7V110h7v2.2Z" transform="translate(-1.2 -1.9)"/><path class="cls-2" d="M98.7,112.1V99.5H104a10.2,10.2,0,0,1,2.9.3,2.9,2.9,0,0,1,1.5,1.2,4.2,4.2,0,0,1,.5,2,3.6,3.6,0,0,1-.8,2.3,4.5,4.5,0,0,1-2.5,1.2,8.5,8.5,0,0,1,1.4,1l1.4,2.1L110,112h-3.1l-1.8-2.7a9.1,9.1,0,0,0-1.4-1.8,1.9,1.9,0,0,0-.7-.6h-1.8v5.3Zm2.5-7.3h1.9a8.2,8.2,0,0,0,2.2-.2,1.3,1.3,0,0,0,.7-.5,1.8,1.8,0,0,0,0-2l-1-.5h-3.8Z" transform="translate(-1.2 -1.9)"/><path class="cls-2" d="M114.9,112V101.6h-3.7V99.4h10v2.1h-3.8V112Z" transform="translate(-1.2 -1.9)"/><path class="cls-3" d="M770.3,141.1s-20.9-5.4-30.1-7a205.8,205.8,0,0,0-20.9-2.7,141.3,141.3,0,0,0-20.9,0,138.4,138.4,0,0,0-20,3.3c-5,1.1-4.7,1.3-14.4,3.7s-13.7,3.1-16.2,3.3-4.9,0-12.1,0c-11.1-.1-12.2-.3-13.5-.5-5.6-1-6.7-2.5-13-4.6-4.7-1.6-9.1-2.2-17.6-3.3s-15-1.9-22.8-1.9c-11.2.1-19.7,1.7-30.2,3.8-7,1.3-12.2,2.7-23.7,4.6l-8.8,1.4c.3,4.3-.2,9,.2,13.4a113.9,113.9,0,0,1,8.4,12.4c1.3,2.3,3.6,5.5,4.5,11.6a112,112,0,0,0,5.5,21.1c4.3,12.5,15.1,19.2,18.1,20.9,8.6,5,16.7,5.3,23.7,5.6s15.6.5,26.9-4.6a60.7,60.7,0,0,0,19.1-14.4,70.2,70.2,0,0,0,7.4-10.7c1.9-3.6,1.8-2.1,6.8-15.1a72.6,72.6,0,0,0,3.9-14.2c.7-3.8,14.1-3.5,14.9,0a166.4,166.4,0,0,0,11.9,30.2c4.1,7.7,8.4,11.2,15,17.1s11,6.9,15.3,8.4c12.6,3.9,26.5,3.3,32.1,2.4,18.2-3,25.7-14.4,30.2-22.8a63.8,63.8,0,0,0,5.1-12.1c.3-1,.3-1.1,2.7-13,1-4.3,1.4-6.6,2.4-8.3a63.6,63.6,0,0,1,5.2-8.2,60.7,60.7,0,0,0,5.3-8.3C771.2,151.1,771.3,142.7,770.3,141.1Zm-149.7,26c-.2,2.4-2.7,17.8-14.2,33a38.9,38.9,0,0,1-11.3,9.9c-8.2,4.9-14.8,5.5-20.9,6s-10.6.4-20-1c-2.4-.7-29.6-1.7-27.9-53.9a17.4,17.4,0,0,1,3.2-10.3c1.1-1.4,2.8-3,7.4-4.9s10.7-3.2,18.8-3.9a142.4,142.4,0,0,1,18.1-.7,129.4,129.4,0,0,1,23.8,2.8,46,46,0,0,1,11.3,3.5c4,2,8,3.9,10.3,8.2S620.9,163.3,620.6,167.1ZM722.4,215c-9.4,1.4-13.4,1.6-20,1s-12.7-1.1-20.9-6a38.9,38.9,0,0,1-11.3-9.9c-11.5-15.2-14-30.6-14.2-33s-.6-7.5,1.4-11.3,6.3-6.2,10.3-8.2a46,46,0,0,1,11.3-3.5,129.4,129.4,0,0,1,23.8-2.8,143.2,143.2,0,0,1,18.1.7c8.1.7,13.3,1.6,18.8,3.9s6.3,3.5,7.4,4.9a17.4,17.4,0,0,1,3.2,10.3C751.9,213.3,724.8,214.3,722.4,215Z" transform="translate(-1.2 -1.9)"/><path class="cls-2" d="M499.4,281.6V296c0,6.3,5.8,11.4,12.9,11.4H765.8c7.2,0,13-5.1,13-11.4V281.6Zm152.8,12a2.7,2.7,0,0,1-2.8,2.7H628.5a2.7,2.7,0,0,1-2.7-2.7h0a2.7,2.7,0,0,1,2.7-2.8h20.9a2.7,2.7,0,0,1,2.8,2.8Zm110.6-162-15.2-3.4v-8.8a2,2,0,0,0-2-2H529.9a2.1,2.1,0,0,0-2.1,2v8.8l-15.1,3.4V119.4a17.2,17.2,0,0,1,17.2-17.2H745.6a17.2,17.2,0,0,1,17.2,17.2ZM745.6,272.8H529.9a17.2,17.2,0,0,1-17.2-17.2v-69c2.5,15.1,7.4,25.7,15.1,33.6v35.4a2.1,2.1,0,0,0,2.1,2H745.6a2,2,0,0,0,2-2V220.2c7.6-7.2,13.1-16.8,15.2-33.6v69A17.2,17.2,0,0,1,745.6,272.8Z" transform="translate(-1.2 -1.9)"/><path class="cls-2" d="M704.7,173.7a14.2,14.2,0,1,1-13.3-9.4,14.7,14.7,0,0,1,9.5,3.6l-9,8.1.8,3.7Zm-118.1,6-.7-3.7,8.9-8.1a14.3,14.3,0,0,0-9.5-3.6,14.1,14.1,0,1,0,13.3,9.4Zm76,44.7a23.3,23.3,0,0,1-46.6,0Z" transform="translate(-1.2 -1.9)"/><rect class="cls-2" x="129" y="30.9" width="20" height="9.5"/><rect class="cls-1" x="129" y="40.7" width="20" height="7.55"/><rect class="cls-4" x="129" y="48" width="20" height="7.55"/><rect class="cls-5" x="129" y="54.3" width="20" height="7.55"/><rect x="129" y="61.6" width="20" height="3.9"/></svg>