<svg id="Capa_1" data-name="Capa 1" xmlns="http://www.w3.org/2000/svg" viewBox="0 0 56.3 79.1"><defs><style>.cls-1{fill:#334756;}</style></defs><title>logoindex</title><path class="cls-1" d="M53.5,46.3s-4-1-5.8-1.3a27.3,27.3,0,0,0-4-.5,17.3,17.3,0,0,0-4,0,21.5,21.5,0,0,0-3.9.6l-2.7.7a15.4,15.4,0,0,1-3.2.6H25a19.5,19.5,0,0,1-2.5-.9,16.4,16.4,0,0,0-3.3-.6,34.9,34.9,0,0,0-4.4-.3,27.1,27.1,0,0,0-5.8.7l-4.6.9-1.7.2c.1.9,0,1.8.1,2.6s1.1,1.5,1.6,2.4a5.9,5.9,0,0,1,.9,2.2,18.7,18.7,0,0,0,1,4.1,7.5,7.5,0,0,0,3.5,4,10.2,10.2,0,0,0,4.5,1.1,11.4,11.4,0,0,0,5.2-.9A11.9,11.9,0,0,0,23.2,59a8.3,8.3,0,0,0,1.4-2.1c.4-.6.3-.4,1.3-2.9a8.9,8.9,0,0,0,.7-2.7c.2-.7,2.8-.6,2.9,0a37.5,37.5,0,0,0,2.3,5.8,10.2,10.2,0,0,0,2.9,3.3A7.8,7.8,0,0,0,37.6,62a14.2,14.2,0,0,0,6.2.5,7.8,7.8,0,0,0,5.8-4.4,10,10,0,0,0,.9-2.3,13.4,13.4,0,0,0,.6-2.5c.2-.8.3-1.3.4-1.6s.6-.9,1-1.6a5.9,5.9,0,0,0,1-1.6A5.4,5.4,0,0,0,53.5,46.3Zm-28.8,5A13.2,13.2,0,0,1,22,57.6a8.9,8.9,0,0,1-2.2,2,8.4,8.4,0,0,1-4,1.1,12.9,12.9,0,0,1-3.8-.2c-.5-.1-5.7-.3-5.4-10.3a3.6,3.6,0,0,1,.6-2,3.4,3.4,0,0,1,1.5-1,10.9,10.9,0,0,1,3.6-.7l3.4-.2a35.2,35.2,0,0,1,4.6.6,8.1,8.1,0,0,1,2.2.7,3.7,3.7,0,0,1,2,1.5A4.2,4.2,0,0,1,24.7,51.3Zm19.6,9.2a13.5,13.5,0,0,1-3.9.2,9,9,0,0,1-4-1.1,8.9,8.9,0,0,1-2.2-2,15.9,15.9,0,0,1-2.7-6.3,4.4,4.4,0,0,1,.3-2.2,3.4,3.4,0,0,1,2-1.5,7.3,7.3,0,0,1,2.1-.7,40,40,0,0,1,4.6-.6l3.5.2a12.1,12.1,0,0,1,3.6.7,2.9,2.9,0,0,1,1.4,1,3,3,0,0,1,.6,2C50,60.2,44.7,60.4,44.3,60.5ZM1.3,73.3v2.8a2.3,2.3,0,0,0,2.5,2.1H52.5A2.3,2.3,0,0,0,55,76.1V73.3Zm29.4,2.3a.5.5,0,0,1-.5.5H26.1a.5.5,0,0,1-.5-.5h0a.5.5,0,0,1,.5-.5h4.1a.5.5,0,0,1,.5.5ZM52.2,44.5l-2.9-.7V42.1c0-.2-.2-.3-.4-.3H7.5c-.3,0-.4.1-.4.3v1.7l-2.9.7V42.1a3.3,3.3,0,0,1,3.3-3.3H48.9a3.3,3.3,0,0,1,3.3,3.3ZM48.9,71.6H7.5a3.3,3.3,0,0,1-3.3-3.3V55.1a10.6,10.6,0,0,0,2.9,6.4v6.8a.4.4,0,0,0,.4.4H48.9a.4.4,0,0,0,.4-.4V61.5a10.1,10.1,0,0,0,2.9-6.4V68.3A3.3,3.3,0,0,1,48.9,71.6Zm-8-19a2.8,2.8,0,0,1,.1.9,2.7,2.7,0,1,1-2.7-2.7,2.3,2.3,0,0,1,1.8.7L38.4,53l.2.7ZM18.2,53.7V53l1.7-1.5a2.4,2.4,0,0,0-1.8-.7,2.7,2.7,0,1,0,0,5.4,2.7,2.7,0,0,0,2.7-2.7,2.9,2.9,0,0,0-.2-.9Zm14.6,8.6a4.5,4.5,0,0,1-9,0ZM7.7,36.9c-.3-.7-1.1-2.1-1.6-3.3a13.2,13.2,0,0,1-1.4-4.4,9.5,9.5,0,0,1,1.7-6c1.8-2.8,4.2-4.2,6.6-5.6a28.8,28.8,0,0,1,9.3-3.3c-2.7,3-3.2,3.8-3.1,3.9s1.9-1.8,5-3,1.6-.2,4.3-1.1L33,12.4l3-1.3a10.9,10.9,0,0,0,4-3.9c-.2.9-.4,1.9-.7,3a19.8,19.8,0,0,1-1.1,3.2A36,36,0,0,0,41.9,11a24.3,24.3,0,0,0,3.7-3.1,15.6,15.6,0,0,0,3.7-7,8.3,8.3,0,0,1,1.9,2.4,11.7,11.7,0,0,1,1.1,5.6c0,5.3-3,10.4-3.9,11.7L51.7,25V23.3a8.8,8.8,0,0,0-.4-2,10,10,0,0,1,1.2,3.1,11.2,11.2,0,0,1,.5,3.9,10.6,10.6,0,0,1-.9,3.5,24.4,24.4,0,0,1-1.7,3.3,76.7,76.7,0,0,0-17.7-3.3c-.3.6-.3.2.1.5A18.4,18.4,0,0,1,36.7,35a26.2,26.2,0,0,1,2.1,2.3l-3.2.2a39.9,39.9,0,0,1-10.4-.9c-5.4-.9-8.9-2.4-10.9-2.7A7.1,7.1,0,0,0,7.7,36.9Z"/></svg>